<svg width="20" height="20" viewBox="0 0 20 20" fill="none" xmlns="http://www.w3.org/2000/svg">
<path d="M18.5021 3.44827H1.49785C0.670586 3.44827 0 4.11886 0 4.94612V15.0539C0 15.8811 0.670586 16.5518 1.49785 16.5518H18.5021C19.3294 16.5518 20 15.8812 20 15.0539V4.94612C20 4.11886 19.3294 3.44827 18.5021 3.44827Z" fill="#41479B"/>
<path d="M19.9793 4.69851C19.8612 3.98917 19.245 3.44823 18.5021 3.44823H18.1124L11.7241 7.63366V3.44827H8.27586V7.6337L1.88758 3.44827H1.49785C0.755 3.44827 0.138789 3.98917 0.0207422 4.69855L5.48082 8.27589H0V11.7242H5.48082L0.0207422 15.3014C0.138789 16.0108 0.755 16.5517 1.49785 16.5517H1.88758L8.27586 12.3663V16.5517H11.7241V12.3663L18.1124 16.5517H18.5021C19.245 16.5517 19.8612 16.0108 19.9793 15.3014L14.5192 11.7241H20V8.27581H14.5192L19.9793 4.69851Z" fill="#F5F5F5"/>
<path d="M11.0345 3.44827H8.96551V8.9655H0V11.0345H8.96551V16.5517H11.0345V11.0345H20V8.9655H11.0345V3.44827Z" fill="#FF4B55"/>
<path d="M0.968516 16.4551L8.25692 11.7241H6.9902L0.360352 16.0277C0.522578 16.2171 0.731055 16.3654 0.968516 16.4551Z" fill="#FF4B55"/>
<path d="M13.5309 11.7241H12.2642L19.3234 16.3064C19.5209 16.1766 19.6858 16.0014 19.8033 15.7956L13.5309 11.7241Z" fill="#FF4B55"/>
<path d="M0.158203 4.27637L6.31953 8.27586H7.58625L0.604531 3.74383C0.41707 3.88336 0.263672 4.06578 0.158203 4.27637Z" fill="#FF4B55"/>
<path d="M12.9908 8.27584L19.6328 3.96432C19.4688 3.77561 19.2587 3.62811 19.0196 3.5401L11.7241 8.27584H12.9908Z" fill="#FF4B55"/>
</svg>
