<svg width="28" height="20" viewBox="0 0 28 20" fill="none" xmlns="http://www.w3.org/2000/svg">
<path d="M1.80007 0H26.1469C27.1069 0 27.886 0.779061 27.886 1.73989V18.261C27.886 19.2209 27.1069 20 26.1469 20H1.80007C0.839238 20.0001 0.0610352 19.2209 0.0610352 18.2611V1.73989C0.0610352 0.779061 0.840096 0 1.80007 0Z" fill="#26A6D1"/>
<path d="M4.54804 6.9563L1.80029 13.037H5.08973L5.49752 12.0674H6.42965L6.83744 13.037H10.4582V12.297L10.7808 13.037H12.6537L12.9764 12.2814V13.037H20.5065L21.4222 12.0926L22.2795 13.037L26.1472 13.0448L23.3907 10.0136L26.1472 6.9563H22.3395L21.4482 7.88318L20.6178 6.9563H12.426L11.7226 8.52577L11.0026 6.9563H7.72007V7.67108L7.35491 6.9563C7.35491 6.9563 4.54804 6.9563 4.54804 6.9563ZM5.18452 7.81976H6.78794L8.61052 11.9431V7.81976H10.367L11.7747 10.7762L13.0721 7.81976H14.8198V12.183H13.7564L13.7477 8.764L12.1973 12.183H11.246L9.68694 8.764V12.183H7.4992L7.08444 11.2048H4.84368L4.42978 12.1822H3.25761L5.18452 7.81976ZM15.7928 7.81976H20.117L21.4395 9.24837L22.8047 7.81976H24.1273L22.1178 10.0127L24.1273 12.1805H22.7447L21.4222 10.7353L20.05 12.1805H15.7928V7.81976ZM5.96454 8.558L5.22629 10.3006H6.70192L5.96454 8.558ZM16.8606 8.72318V9.51969H19.2196V10.4075H16.8606V11.277H19.5066L20.7361 9.99625L19.5588 8.72242H16.8606V8.72318Z" fill="white"/>
</svg>
