<svg width="20" height="20" viewBox="0 0 20 20" fill="none" xmlns="http://www.w3.org/2000/svg">
<path d="M18.7626 5.01538C17.6212 5.01538 16.5681 4.63726 15.7224 3.99936C14.7524 3.26811 14.0556 2.19546 13.8095 0.959131C13.7485 0.653662 13.7157 0.338428 13.7126 0.0153809H10.452V8.92476L10.4481 13.8048C10.4481 15.1095 9.59853 16.2158 8.42079 16.6048C8.079 16.7177 7.70986 16.7712 7.32548 16.7501C6.83486 16.7232 6.37509 16.5751 5.97548 16.3361C5.12509 15.8275 4.54853 14.9048 4.5329 13.8494C4.50829 12.1998 5.84189 10.8548 7.49032 10.8548C7.81572 10.8548 8.12822 10.908 8.42079 11.0044V8.56929V7.6939C8.1122 7.64819 7.79814 7.62436 7.48056 7.62436C5.67626 7.62436 3.98876 8.37436 2.78251 9.72554C1.87079 10.7466 1.32392 12.0494 1.23954 13.4154C1.129 15.2099 1.78564 16.9158 3.05907 18.1744C3.24618 18.3591 3.44267 18.5306 3.64814 18.6888C4.73993 19.5291 6.0747 19.9845 7.48056 19.9845C7.79814 19.9845 8.1122 19.9611 8.42079 19.9154C9.73408 19.7208 10.9458 19.1197 11.902 18.1744C13.077 17.013 13.7263 15.4712 13.7333 13.8302L13.7165 6.54272C14.277 6.97515 14.8899 7.33296 15.5477 7.61069C16.5708 8.04233 17.6556 8.26108 18.772 8.26069V5.89311V5.0146C18.7727 5.01538 18.7634 5.01538 18.7626 5.01538Z" fill="white"/>
</svg>
