<svg width="20" height="20" viewBox="0 0 20 20" fill="none" xmlns="http://www.w3.org/2000/svg">
<path d="M18.1444 9.0786V4.62477C18.1444 3.64285 17.3455 2.84399 16.3636 2.84399H3.63641C2.65449 2.84399 1.85563 3.64285 1.85563 4.62477V9.0786C0.787031 9.37442 0 10.3549 0 11.5163V14.9004C0 15.2283 0.265859 15.4941 0.59375 15.4941H1.85563V16.5623C1.85563 16.8902 2.12148 17.156 2.44937 17.156C2.77727 17.156 3.04312 16.8902 3.04312 16.5623V15.4941H16.9569V16.5623C16.9569 16.8902 17.2227 17.156 17.5506 17.156C17.8785 17.156 18.1444 16.8902 18.1444 16.5623V15.4941H19.4062C19.7341 15.4941 20 15.2283 20 14.9004V11.5163C20 10.3549 19.2129 9.37442 18.1444 9.0786ZM3.04312 4.62477C3.04312 4.29766 3.3093 4.03149 3.63641 4.03149H16.3636C16.6907 4.03149 16.9569 4.29766 16.9569 4.62477V8.98672H15.5657V7.79488C15.5657 6.75852 14.7226 5.91539 13.6862 5.91539H11.2858C10.7887 5.91539 10.3365 6.10965 10 6.42586C9.66359 6.10969 9.21133 5.91539 8.7143 5.91539H6.31387C5.2775 5.91539 4.43437 6.75856 4.43437 7.79488V8.98672H3.04312V4.62477ZM14.3782 7.79488V8.98672H10.5938V7.79488C10.5938 7.41328 10.9042 7.10289 11.2857 7.10289H13.6862C14.0678 7.10289 14.3782 7.41332 14.3782 7.79488ZM9.40621 7.79488V8.98672H5.62176V7.79488C5.62176 7.41328 5.93223 7.10289 6.31375 7.10289H8.71418C9.09578 7.10289 9.40621 7.41332 9.40621 7.79488ZM18.8125 14.3066H1.1875V11.5163C1.1875 10.7763 1.78953 10.1742 2.52957 10.1742H17.4704C18.2104 10.1742 18.8125 10.7763 18.8125 11.5163V14.3066Z" fill="#4483E2"/>
</svg>
