<svg width="60" height="60" viewBox="0 0 60 60" fill="none" xmlns="http://www.w3.org/2000/svg">
<g clip-path="url(#clip0)">
<path d="M53.535 -1.23441H48.7031V-3.24219C48.7031 -4.21297 47.9161 -5 46.9453 -5C45.9745 -5 45.1875 -4.21297 45.1875 -3.24219V-1.23441H37.4062V-3.24219C37.4062 -4.21297 36.6192 -5 35.6484 -5C34.6777 -5 33.8906 -4.21297 33.8906 -3.24219V-1.23441H26.1094V-3.24219C26.1094 -4.21297 25.3223 -5 24.3516 -5C23.3808 -5 22.5938 -4.21297 22.5938 -3.24219V-1.23441H14.8125V-3.24219C14.8125 -4.21297 14.0255 -5 13.0547 -5C12.0839 -5 11.2969 -4.21297 11.2969 -3.24219V-1.23441H6.46477C2.90016 -1.23441 0 1.66563 0 5.23047V48.5351C0 52.0998 2.90016 55 6.46477 55H53.535C57.0997 55 60 52.0998 60 48.5351V5.23047C60 1.66563 57.0997 -1.23441 53.535 -1.23441ZM6.46477 2.28121H11.2969V4.2891C11.2969 5.25988 12.0839 6.04691 13.0547 6.04691C14.0255 6.04691 14.8125 5.25988 14.8125 4.2891V2.28121H22.5935V4.2891C22.5935 5.25988 23.3805 6.04691 24.3513 6.04691C25.3221 6.04691 26.1091 5.25988 26.1091 4.2891V2.28121H33.8904V4.2891C33.8904 5.25988 34.6774 6.04691 35.6482 6.04691C36.619 6.04691 37.406 5.25988 37.406 4.2891V2.28121H45.1873V4.2891C45.1873 5.25988 45.9743 6.04691 46.9451 6.04691C47.9159 6.04691 48.7029 5.25988 48.7029 4.2891V2.28121H53.5348C55.1612 2.28121 56.4844 3.60426 56.4844 5.23047V10.0625H3.51562V5.23047C3.51562 3.60426 4.83867 2.28121 6.46477 2.28121ZM53.535 51.4844H6.46477C4.83867 51.4844 3.51562 50.1613 3.51562 48.5351V13.5781H56.4844V48.5351C56.4844 50.1613 55.1612 51.4844 53.535 51.4844Z" fill="#4483E2"/>
<path d="M17.7617 19.4767H10.2305C9.25969 19.4767 8.47266 20.2637 8.47266 21.2345V28.7657C8.47266 29.7365 9.25969 30.5235 10.2305 30.5235H17.7619C18.7326 30.5235 19.5197 29.7365 19.5197 28.7657V21.2345C19.5196 20.2637 18.7326 19.4767 17.7617 19.4767ZM16.0039 27.0079H11.9882V22.9923H16.0039V27.0079Z" fill="#4483E2"/>
<path d="M49.7695 19.4767H42.2383C41.2675 19.4767 40.4805 20.2637 40.4805 21.2345V28.7657C40.4805 29.7365 41.2675 30.5235 42.2383 30.5235H49.7695C50.7402 30.5235 51.5273 29.7365 51.5273 28.7657V21.2345C51.5273 20.2637 50.7402 19.4767 49.7695 19.4767ZM48.0116 27.0079H43.9961V22.9923H48.0116V27.0079Z" fill="#4483E2"/>
<path d="M17.7617 34.5391H10.2305C9.25969 34.5391 8.47266 35.3261 8.47266 36.2969V43.828C8.47266 44.7988 9.25969 45.5859 10.2305 45.5859H17.7619C18.7326 45.5859 19.5197 44.7988 19.5197 43.828V36.2969C19.5196 35.3261 18.7326 34.5391 17.7617 34.5391ZM16.0039 42.0702H11.9882V38.0547H16.0039V42.0702Z" fill="#4483E2"/>
<path d="M49.7695 34.5391H42.2383C41.2675 34.5391 40.4805 35.3261 40.4805 36.2969V43.828C40.4805 44.7988 41.2675 45.5859 42.2383 45.5859H49.7695C50.7402 45.5859 51.5273 44.7988 51.5273 43.828V36.2969C51.5273 35.3261 50.7402 34.5391 49.7695 34.5391ZM48.0116 42.0702H43.9961V38.0547H48.0116V42.0702Z" fill="#4483E2"/>
<path d="M33.7658 34.5391H26.2344C25.2636 34.5391 24.4766 35.3261 24.4766 36.2969V43.828C24.4766 44.7988 25.2636 45.5859 26.2344 45.5859H33.7658C34.7366 45.5859 35.5236 44.7988 35.5236 43.828V36.2969C35.5236 35.3261 34.7366 34.5391 33.7658 34.5391ZM32.008 42.0702H27.9922V38.0547H32.008V42.0702Z" fill="#4483E2"/>
<path d="M32.7513 21.0945L28.6691 25.1768L27.2493 23.757C26.5629 23.0705 25.4499 23.0705 24.7634 23.757C24.0769 24.4434 24.0769 25.5564 24.7634 26.2429L27.4263 28.9057C27.7559 29.2354 28.203 29.4206 28.6691 29.4206C29.1354 29.4206 29.5825 29.2354 29.9122 28.9057L35.2373 23.5804C35.9236 22.8939 35.9236 21.7809 35.2373 21.0945C34.5507 20.408 33.4377 20.408 32.7513 21.0945Z" fill="#4483E2"/>
</g>
<defs>
<clipPath id="clip0">
<rect width="60" height="60" fill="white"/>
</clipPath>
</defs>
</svg>
