<svg width="26" height="26" viewBox="0 0 26 26" fill="none" xmlns="http://www.w3.org/2000/svg">
<path d="M22.5209 2.47619H19.8095V0.619048C19.8095 0.454866 19.7443 0.297409 19.6282 0.181315C19.5121 0.065221 19.3546 0 19.1905 0C19.0263 0 18.8688 0.065221 18.7527 0.181315C18.6366 0.297409 18.5714 0.454866 18.5714 0.619048V2.47619H7.42857V0.619048C7.42857 0.454866 7.36335 0.297409 7.24725 0.181315C7.13116 0.065221 6.9737 0 6.80952 0C6.64534 0 6.48788 0.065221 6.37179 0.181315C6.25569 0.297409 6.19047 0.454866 6.19047 0.619048V2.47619H3.47905C2.55635 2.47619 1.67144 2.84273 1.01899 3.49518C0.366541 4.14763 0 5.03254 0 5.95524V22.521C0 23.4437 0.366541 24.3286 1.01899 24.981C1.67144 25.6335 2.55635 26 3.47905 26H22.5209C23.4436 26 24.3285 25.6335 24.981 24.981C25.6334 24.3286 26 23.4437 26 22.521V5.95524C26 5.03254 25.6334 4.14763 24.981 3.49518C24.3285 2.84273 23.4436 2.47619 22.5209 2.47619ZM3.47905 3.71429H22.5209C23.1153 3.71429 23.6853 3.95039 24.1055 4.37065C24.5258 4.79091 24.7619 5.3609 24.7619 5.95524V7.42857H1.23809V5.95524C1.23809 5.3609 1.47419 4.79091 1.89445 4.37065C2.31471 3.95039 2.88471 3.71429 3.47905 3.71429ZM22.5209 24.7619H3.47905C2.88471 24.7619 2.31471 24.5258 1.89445 24.1055C1.47419 23.6853 1.23809 23.1153 1.23809 22.521V8.66667H24.7619V22.521C24.7619 23.1153 24.5258 23.6853 24.1055 24.1055C23.6853 24.5258 23.1153 24.7619 22.5209 24.7619Z" fill="#4483E2"/>
</svg>
