<svg width="60" height="60" viewBox="0 0 60 60" fill="none" xmlns="http://www.w3.org/2000/svg">
<path d="M23.1248 20.0002H4.37485C1.96243 20.0002 0 18.0377 0 15.6248V4.37485C0 1.96243 1.96243 0 4.37485 0H23.1248C25.5377 0 27.5002 1.96243 27.5002 4.37485V15.6248C27.5002 18.0377 25.5377 20.0002 23.1248 20.0002ZM4.37485 3.75C4.03015 3.75 3.75 4.03015 3.75 4.37485V15.6248C3.75 15.97 4.03015 16.2502 4.37485 16.2502H23.1248C23.47 16.2502 23.7502 15.97 23.7502 15.6248V4.37485C23.7502 4.03015 23.47 3.75 23.1248 3.75H4.37485Z" fill="#4483E2"/>
<path d="M23.1248 60H4.37485C1.96243 60 0 58.0376 0 55.6252V29.3752C0 26.9623 1.96243 24.9999 4.37485 24.9999H23.1248C25.5377 24.9999 27.5002 26.9623 27.5002 29.3752V55.6252C27.5002 58.0376 25.5377 60 23.1248 60ZM4.37485 28.7499C4.03015 28.7499 3.75 29.03 3.75 29.3752V55.6252C3.75 55.9699 4.03015 56.25 4.37485 56.25H23.1248C23.47 56.25 23.7502 55.9699 23.7502 55.6252V29.3752C23.7502 29.03 23.47 28.7499 23.1248 28.7499H4.37485Z" fill="#4483E2"/>
<path d="M55.6253 60H36.8753C34.4624 60 32.5 58.0376 32.5 55.6252V44.3752C32.5 41.9623 34.4624 39.9999 36.8753 39.9999H55.6253C58.0377 39.9999 60.0002 41.9623 60.0002 44.3752V55.6252C60.0002 58.0376 58.0377 60 55.6253 60ZM36.8753 43.7499C36.5302 43.7499 36.25 44.03 36.25 44.3752V55.6252C36.25 55.9699 36.5302 56.25 36.8753 56.25H55.6253C55.97 56.25 56.2502 55.9699 56.2502 55.6252V44.3752C56.2502 44.03 55.97 43.7499 55.6253 43.7499H36.8753Z" fill="#4483E2"/>
<path d="M55.6253 35.0002H36.8753C34.4624 35.0002 32.5 33.0377 32.5 30.6248V4.37485C32.5 1.96243 34.4624 0 36.8753 0H55.6253C58.0377 0 60.0002 1.96243 60.0002 4.37485V30.6248C60.0002 33.0377 58.0377 35.0002 55.6253 35.0002ZM36.8753 3.75C36.5302 3.75 36.25 4.03015 36.25 4.37485V30.6248C36.25 30.97 36.5302 31.2502 36.8753 31.2502H55.6253C55.97 31.2502 56.2502 30.97 56.2502 30.6248V4.37485C56.2502 4.03015 55.97 3.75 55.6253 3.75H36.8753Z" fill="#4483E2"/>
</svg>
