<svg width="26" height="26" viewBox="0 0 26 26" fill="none" xmlns="http://www.w3.org/2000/svg">
<path d="M23.5602 5.4176C23.817 5.06543 23.969 4.63227 23.969 4.16406C23.969 2.98802 23.0122 2.03125 21.8362 2.03125C21.368 2.03125 20.9348 2.18329 20.5827 2.44004C18.3651 0.842664 15.7525 0 13 0C10.2998 0 7.71052 0.820219 5.51195 2.37194C5.28282 2.53368 5.22818 2.8505 5.38992 3.07968C5.55166 3.3088 5.86854 3.36345 6.09766 3.20171C7.56625 2.16516 9.22441 1.48312 10.9736 1.186C10.77 1.44468 10.5654 1.75602 10.3636 2.13098C9.74751 3.27554 9.23909 4.85174 8.88469 6.70932C7.95234 6.77635 7.18428 7.44484 6.96764 8.32812H1.96051C2.25565 7.63146 2.61782 6.96079 3.0453 6.32465C3.20171 6.09187 3.13975 5.77637 2.90697 5.61996C2.67419 5.4635 2.35869 5.52546 2.20228 5.75824C0.761516 7.90243 0 10.4066 0 13C0 15.7516 0.842715 18.3648 2.43989 20.5826C2.18324 20.9347 2.03125 21.3678 2.03125 21.8359C2.03125 23.012 2.98802 23.9688 4.16406 23.9688C4.63222 23.9688 5.06533 23.8168 5.41745 23.5601C7.63516 25.1573 10.2482 26 13 26C16.4724 26 19.737 24.6477 22.1924 22.1924C24.6477 19.737 26 16.4724 26 13C26 10.2478 25.1574 7.63521 23.5602 5.4176ZM24.4133 16.6562H18.9981C18.8242 15.9471 18.2949 15.3765 17.6104 15.1442C17.6504 14.4388 17.6719 13.72 17.6719 13C17.6719 11.7444 17.611 10.5158 17.4938 9.3438H24.4196C24.7927 10.5115 24.9844 11.7399 24.9844 13C24.9844 14.2746 24.7836 15.5031 24.4133 16.6562ZM13 24.9844C12.1492 24.9844 11.2285 23.7464 10.5373 21.6727C10.1499 20.5104 9.85019 19.1526 9.64793 17.6719H14.8556C15.0182 18.3348 15.4912 18.877 16.1114 19.1346C15.3388 23.1709 14.0067 24.9844 13 24.9844ZM4.16406 19.7031C3.82449 19.7031 3.5034 19.7833 3.21816 19.9251C2.71319 19.2142 2.29196 18.4599 1.95762 17.6719H8.62398C8.83502 19.2698 9.1553 20.7384 9.57379 21.9939C9.97618 23.2011 10.4448 24.1455 10.9668 24.8138C9.20776 24.5155 7.54797 23.8283 6.07491 22.7819C6.21669 22.4966 6.29688 22.1755 6.29688 21.8359C6.29688 20.6599 5.34011 19.7031 4.16406 19.7031ZM9.34375 13C9.34375 12.3071 9.36406 11.6157 9.40215 10.9372C10.2388 10.7929 10.9099 10.1601 11.1101 9.34375H16.4733C16.5937 10.5113 16.6562 11.7406 16.6562 13C16.6562 13.6906 16.636 14.3799 16.5982 15.0566C15.7454 15.1891 15.0586 15.8287 14.8556 16.6562H9.52666C9.40636 15.4887 9.34375 14.2595 9.34375 13ZM16.9269 18.2812C16.3108 18.2812 15.8097 17.7801 15.8097 17.1641C15.8097 16.548 16.3108 16.0469 16.9269 16.0469C17.5429 16.0469 18.0441 16.548 18.0441 17.1641C18.0441 17.7801 17.5429 18.2812 16.9269 18.2812ZM16.4262 4.00613C16.0238 2.79881 15.5552 1.85438 15.0331 1.1861C16.7924 1.48444 18.4522 2.17151 19.9253 3.21811C19.7836 3.5034 19.7034 3.82449 19.7034 4.16406C19.7034 5.34011 20.6601 6.29688 21.8362 6.29688C22.1758 6.29688 22.4968 6.21669 22.7821 6.07496C23.2871 6.7858 23.7082 7.5402 24.0425 8.32818H17.376C17.165 6.73019 16.8446 5.2616 16.4262 4.00613ZM22.9534 4.16406C22.9534 4.78009 22.4522 5.28125 21.8362 5.28125C21.2202 5.28125 20.719 4.78009 20.719 4.16406C20.719 3.54804 21.2202 3.04688 21.8362 3.04688C22.4522 3.04688 22.9534 3.54804 22.9534 4.16406ZM13 1.01562C13.8508 1.01562 14.7715 2.25362 15.4627 4.32727C15.8501 5.48961 16.1498 6.84745 16.3521 8.32812H11.1101C10.9503 7.67655 10.4906 7.14177 9.88604 6.87903C10.6579 2.83339 11.9913 1.01562 13 1.01562ZM9.03886 7.7188C9.65489 7.7188 10.156 8.21996 10.156 8.83599C10.156 9.45202 9.65489 9.95318 9.03886 9.95318C8.42283 9.95318 7.92167 9.45202 7.92167 8.83599C7.92167 8.21996 8.42283 7.7188 9.03886 7.7188ZM6.96764 9.3438C7.14441 10.0645 7.68818 10.6424 8.38896 10.8672C8.34935 11.5689 8.32812 12.2838 8.32812 13C8.32812 14.2557 8.38896 15.4843 8.50622 16.6562H1.58067C1.20748 15.4883 1.01562 14.2599 1.01562 13C1.01562 11.7465 1.20885 10.5159 1.58371 9.3438H6.96764ZM3.04688 21.8359C3.04688 21.2199 3.54804 20.7188 4.16406 20.7188C4.78009 20.7188 5.28125 21.2199 5.28125 21.8359C5.28125 22.452 4.78009 22.9531 4.16406 22.9531C3.54804 22.9531 3.04688 22.452 3.04688 21.8359ZM15.0281 24.8119C15.2299 24.5552 15.4326 24.2468 15.6328 23.8759C16.2507 22.7304 16.7608 21.1506 17.1159 19.288C18.0326 19.2071 18.7842 18.5441 18.9981 17.6719H24.0361C22.4662 21.3663 19.0932 24.1161 15.0281 24.8119Z" fill="#4483E2"/>
<path d="M4.06543 4.77649C4.19954 4.77649 4.33 4.72266 4.42496 4.6277C4.51941 4.53325 4.57324 4.40223 4.57324 4.26868C4.57324 4.13512 4.51941 4.00461 4.42496 3.90965C4.33 3.8152 4.19954 3.76086 4.06543 3.76086C3.93187 3.76086 3.80086 3.8152 3.70646 3.90965C3.612 4.00461 3.55762 4.13512 3.55762 4.26868C3.55762 4.40223 3.61195 4.53325 3.70646 4.6277C3.80086 4.72266 3.93187 4.77649 4.06543 4.77649Z" fill="#4483E2"/>
</svg>
