<svg width="60" height="60" viewBox="0 0 60 60" fill="none" xmlns="http://www.w3.org/2000/svg">
<g clip-path="url(#clip0)">
<path d="M48.8393 28.9013C48.5646 28.0724 47.8698 27.4528 47.0148 27.2738L35.2468 24.8108L38.797 2.84456C38.9727 1.75575 38.4005 0.683234 37.3975 0.223851C36.3936 -0.236353 35.2084 0.029316 34.4988 0.874487L11.6105 28.0953C11.0898 28.7149 10.9083 29.5528 11.1258 30.3327C11.3432 31.1126 11.9327 31.7354 12.6994 31.9953L24.1133 35.8692L19.5104 57.027C19.2733 58.1183 19.803 59.2317 20.7995 59.736C21.1517 59.9142 21.5311 60 21.9063 60C22.5929 60 23.2682 59.7115 23.7456 59.1703L48.3506 31.2971C48.9283 30.6424 49.1148 29.7302 48.8393 28.9013ZM26.3074 48.8559L29.372 34.7713C29.6377 33.5517 28.9453 32.328 27.764 31.9275L17.6744 28.5032L32.5395 10.826L30.0324 26.3386C29.8231 27.6318 30.6683 28.8612 31.9509 29.1302L41.8853 31.2089L26.3074 48.8559Z" fill="#4483E2"/>
</g>
<defs>
<clipPath id="clip0">
<rect width="60" height="60" fill="white"/>
</clipPath>
</defs>
</svg>
