<svg width="22" height="22" viewBox="0 0 22 22" fill="none" xmlns="http://www.w3.org/2000/svg">
<g clip-path="url(#clip0)">
<path d="M3.66436 17.6C3.08088 17.6 2.5213 17.3682 2.10872 16.9556C1.69614 16.5431 1.46436 15.9835 1.46436 15.4V11C1.46436 10.8049 1.54186 10.6178 1.67982 10.4798C1.81777 10.3419 2.00488 10.2644 2.19998 10.2644H3.66436C4.24783 10.2644 4.80741 10.4962 5.21999 10.9087C5.63257 11.3213 5.86436 11.8809 5.86436 12.4644V15.4C5.86436 15.9835 5.63257 16.5431 5.21999 16.9556C4.80741 17.3682 4.24783 17.6 3.66436 17.6ZM2.92873 11.7287V15.4C2.94638 15.5819 3.03115 15.7508 3.1665 15.8737C3.30186 15.9965 3.47812 16.0646 3.66092 16.0646C3.84372 16.0646 4.01998 15.9965 4.15533 15.8737C4.29069 15.7508 4.37546 15.5819 4.39311 15.4V12.4644C4.39311 12.2693 4.3156 12.0822 4.17765 11.9442C4.03969 11.8063 3.85258 11.7287 3.65748 11.7287H2.92873Z" fill="#413746"/>
<path d="M2.31669 8.79313H2.19981C2.0075 8.76112 1.83576 8.65407 1.72232 8.49552C1.60887 8.33696 1.56302 8.13985 1.59481 7.9475C1.88641 6.22206 2.64718 4.61012 3.79382 3.28822C4.94045 1.96632 6.42873 0.985434 8.09567 0.452979C9.7626 -0.0794754 11.5439 -0.142964 13.2445 0.269465C14.9451 0.681895 16.4995 1.55434 17.7373 2.79125C19.1394 4.18742 20.0676 5.9886 20.3911 7.94063C20.4182 8.03988 20.4242 8.14373 20.4087 8.24544C20.3932 8.34716 20.3565 8.4445 20.301 8.53115C20.2455 8.61781 20.1725 8.69187 20.0866 8.74854C20.0007 8.80521 19.9039 8.84323 19.8024 8.86014C19.7009 8.87706 19.597 8.87249 19.4974 8.84674C19.3977 8.82099 19.3046 8.77463 19.224 8.71065C19.1435 8.64667 19.0772 8.56649 19.0295 8.4753C18.9819 8.38411 18.9539 8.28394 18.9473 8.18125C18.6289 6.30294 17.6558 4.598 16.2004 3.3686C14.7451 2.1392 12.9015 1.46474 10.9964 1.46474C9.09126 1.46474 7.24767 2.1392 5.79232 3.3686C4.33697 4.598 3.36386 6.30294 3.04544 8.18125C3.01613 8.35303 2.92678 8.50883 2.79332 8.62089C2.65986 8.73294 2.49095 8.79398 2.31669 8.79313Z" fill="#413746"/>
<path d="M7.97515 4.4C7.81507 4.39432 7.66122 4.33654 7.53698 4.23544C7.41273 4.13435 7.32487 3.99547 7.28676 3.83989C7.24864 3.68431 7.26235 3.52054 7.32579 3.37346C7.38924 3.22639 7.49895 3.10404 7.63827 3.025C8.67958 2.49873 9.82998 2.22454 10.9967 2.22454C12.1634 2.22454 13.3138 2.49873 14.3552 3.025C14.4446 3.06777 14.5244 3.12816 14.5899 3.20255C14.6554 3.27695 14.7051 3.36381 14.7362 3.45792C14.7673 3.55203 14.7791 3.65145 14.7708 3.75021C14.7625 3.84897 14.7343 3.94504 14.6879 4.03264C14.6416 4.12024 14.578 4.19758 14.501 4.26C14.424 4.32242 14.3352 4.36864 14.2399 4.39589C14.1447 4.42314 14.0448 4.43085 13.9465 4.41856C13.8482 4.40627 13.7533 4.37423 13.6677 4.32437C12.8368 3.89846 11.9166 3.67633 10.983 3.67633C10.0493 3.67633 9.1291 3.89846 8.29827 4.32437C8.19782 4.3741 8.08724 4.39998 7.97515 4.4Z" fill="#413746"/>
<path d="M19.807 10.2644H18.3358C17.7523 10.2644 17.1927 10.4962 16.7802 10.9087C16.3676 11.3213 16.1358 11.8809 16.1358 12.4644V15.4C16.1358 15.9835 16.3676 16.5431 16.7802 16.9556C17.1927 17.3682 17.7523 17.6 18.3358 17.6C18.5506 17.5971 18.7637 17.5623 18.9683 17.4969C18.835 17.9502 18.5589 18.3483 18.1811 18.632C17.8032 18.9156 17.3439 19.0697 16.8714 19.0713H13.0627C12.8899 18.5818 12.5496 18.1691 12.102 17.9063C11.6544 17.6435 11.1283 17.5474 10.6167 17.635C10.105 17.7227 9.64088 17.9884 9.30625 18.3852C8.97163 18.782 8.78809 19.2844 8.78809 19.8034C8.78809 20.3225 8.97163 20.8249 9.30625 21.2217C9.64088 21.6185 10.105 21.8842 10.6167 21.9719C11.1283 22.0595 11.6544 21.9634 12.102 21.7006C12.5496 21.4378 12.8899 21.0251 13.0627 20.5356H16.8714C17.8427 20.5338 18.7737 20.1472 19.4605 19.4604C20.1473 18.7735 20.534 17.8425 20.5358 16.8713V11C20.5358 10.8061 20.4592 10.62 20.3228 10.4822C20.1863 10.3445 20.0009 10.2662 19.807 10.2644ZM11.0002 20.5356C10.8547 20.5356 10.7125 20.4925 10.5915 20.4117C10.4705 20.3308 10.3762 20.2159 10.3205 20.0815C10.2649 19.9471 10.2503 19.7992 10.2787 19.6565C10.3071 19.5138 10.3771 19.3827 10.48 19.2798C10.5829 19.177 10.714 19.1069 10.8567 19.0785C10.9994 19.0501 11.1473 19.0647 11.2817 19.1204C11.4161 19.1761 11.531 19.2703 11.6118 19.3913C11.6927 19.5123 11.7358 19.6545 11.7358 19.8C11.7358 19.9951 11.6583 20.1822 11.5203 20.3202C11.3824 20.4581 11.1953 20.5356 11.0002 20.5356ZM19.0714 15.4C19.0538 15.582 18.969 15.7508 18.8336 15.8737C18.6983 15.9965 18.522 16.0646 18.3392 16.0646C18.1564 16.0646 17.9802 15.9965 17.8448 15.8737C17.7095 15.7508 17.6247 15.582 17.607 15.4V12.4644C17.607 12.2693 17.6845 12.0822 17.8225 11.9442C17.9605 11.8063 18.1476 11.7287 18.3427 11.7287H19.0783L19.0714 15.4Z" fill="#413746"/>
</g>
<defs>
<clipPath id="clip0">
<rect width="22" height="22" fill="white"/>
</clipPath>
</defs>
</svg>
