<svg width="22" height="22" viewBox="0 0 22 22" fill="none" xmlns="http://www.w3.org/2000/svg">
<g clip-path="url(#clip0)">
<path d="M11.0004 20.8062L1.78008 11.5861C-0.593395 9.21246 -0.593352 5.35038 1.78016 2.97686C2.93 1.82702 4.45875 1.1938 6.08481 1.1938C7.71091 1.1938 9.23966 1.82702 10.3895 2.97686L11 3.58739L11.6105 2.97686C12.7603 1.82702 14.2891 1.1938 15.9152 1.1938C17.5412 1.1938 19.07 1.82702 20.2198 2.97682C22.5933 5.35038 22.5934 9.21246 20.2199 11.5861L11.0004 20.8062ZM6.08485 2.4832C4.80319 2.4832 3.59825 2.98232 2.69194 3.88859C0.821156 5.75942 0.821156 8.80351 2.69185 10.6743L11.0001 18.983L19.3083 10.6743C21.179 8.80347 21.179 5.75942 19.3082 3.88859C18.4019 2.98232 17.1969 2.4832 15.9153 2.4832C14.6336 2.4832 13.4286 2.98228 12.5224 3.88859L11.0001 5.41085L9.47785 3.88859C8.57149 2.98232 7.36651 2.4832 6.08485 2.4832Z" fill="#413746"/>
</g>
<defs>
<clipPath id="clip0">
<rect width="22" height="22" fill="white"/>
</clipPath>
</defs>
</svg>
