<svg width="152" height="33" viewBox="0 0 152 33" fill="none" xmlns="http://www.w3.org/2000/svg">
<path d="M142.572 9.07656C142.478 11.3564 142.139 13.8013 141.405 16.2395C141.405 16.2395 141.405 16.2395 141.411 16.2395C145.542 15.6187 147.4 10.2451 147.404 10.2375C146.052 9.6982 144.402 9.22762 142.572 9.08972V9.07656Z" fill="url(#paint0_linear)"/>
<path d="M141.822 0.00088501C142.147 1.57595 142.508 3.8855 142.585 6.57185C142.612 7.3772 142.612 8.21352 142.574 9.07658V9.09017C144.404 9.22765 146.053 9.69863 147.406 10.2379C149.708 11.1549 151.146 12.2679 151.146 12.2679C153.19 0.72562 141.822 0.00088501 141.822 0.00088501Z" fill="url(#paint1_linear)"/>
<path d="M142.585 6.57184C142.529 4.71886 142.343 3.04408 142.124 1.66761C134.147 -0.0500164 133.962 7.39585 133.962 7.39585C133.962 14.3482 141.407 16.2398 141.407 16.2398C142.141 13.8017 142.479 11.3564 142.574 9.07698C142.612 8.2135 142.612 7.37718 142.585 6.57184Z" fill="url(#paint2_linear)"/>
<path d="M131.011 22.0704C128.605 30.4358 120.787 33 120.787 33C131.308 30.8932 136.937 25.8417 139.822 20.2C139.735 20.2509 135.921 22.3606 131.011 22.0704Z" fill="url(#paint3_linear)"/>
<path d="M131.011 22.0705C129.462 21.978 127.801 21.6517 126.112 20.9384C126.112 20.9443 126.402 28.2986 120.787 33C120.788 33 128.605 30.4359 131.011 22.0705Z" fill="url(#paint4_linear)"/>
<path d="M143.22 5.82586C143.22 7.19343 142.111 8.2958 140.753 8.2958C139.387 8.2958 138.282 7.19343 138.282 5.82586C138.282 4.46422 139.387 3.36141 140.753 3.36141C142.111 3.36184 143.22 4.46422 143.22 5.82586Z" fill="white"/>
<path d="M142.332 5.77414C142.332 6.40085 141.824 6.90918 141.195 6.90918C140.569 6.90918 140.061 6.40085 140.061 5.77414C140.061 5.14657 140.569 4.63612 141.195 4.63612C141.824 4.63612 142.332 5.14657 142.332 5.77414Z" fill="#424242"/>
<path d="M139.822 20.2C140.273 19.3323 140.643 18.4518 140.962 17.5667C130.265 22.9126 120.22 16.6663 120.22 16.6663C128.955 26.2223 139.674 20.2844 139.822 20.2Z" fill="url(#paint5_linear)"/>
<path d="M120.22 16.6663C120.22 16.6663 130.265 22.9128 140.963 17.5667C141.122 17.1255 141.274 16.6833 141.407 16.2395C141.407 16.2395 139.982 15.878 138.381 14.888C133.326 19.5997 124.361 16.7745 124.361 16.7745C122.813 17.1017 120.22 16.6663 120.22 16.6663Z" fill="url(#paint6_linear)"/>
<path d="M124.36 16.7749C124.36 16.7749 133.325 19.5996 138.381 14.8884C137.933 14.6126 137.471 14.285 137.022 13.9044C126.179 19.3806 118 8.78288 118 8.78288C119.045 14.6843 124.36 16.7749 124.36 16.7749Z" fill="url(#paint7_linear)"/>
<path d="M118 8.78252C118 8.78252 126.179 19.3806 137.022 13.904C136.937 13.831 136.853 13.7538 136.766 13.6761C127.57 16.3327 121.946 9.7088 121.946 9.7088C120.003 10.0521 118 8.78252 118 8.78252Z" fill="url(#paint8_linear)"/>
<path d="M136.265 13.1984C136.271 13.1984 136.274 13.1992 136.274 13.1992C134.988 11.8529 133.96 9.97441 133.96 7.39499C133.96 7.39499 134.144 -0.0504898 142.121 1.66672C142.023 1.04764 141.917 0.488388 141.819 0C134.663 0 132.522 6.25697 132.522 6.25697C124.614 6.86629 119.347 0.485423 119.347 0.485423C119.347 0.485423 121.994 12.5084 136.265 13.1984Z" fill="url(#paint9_linear)"/>
<path d="M121.946 9.70883C121.946 9.70883 127.571 16.3324 136.766 13.6762C136.601 13.5256 136.434 13.366 136.276 13.1997C136.276 13.1997 136.272 13.1988 136.267 13.1988C121.996 12.5089 119.35 0.486702 119.35 0.486702C117.888 5.97525 121.946 9.70883 121.946 9.70883Z" fill="url(#paint10_linear)"/>
<path d="M15.4769 6.15569H0V10.5189H5.34467V26.7476H10.1049V10.5189H15.4769V6.15569Z" fill="black"/>
<path d="M23.0316 12.9457C21.8983 12.4877 20.5422 12.5691 19.3541 13.4582C19.15 13.612 18.9564 13.7812 18.7745 13.9654V12.9761H14.4697V26.7475H18.7745V19.4631C18.7745 18.879 18.8491 18.3797 18.9969 17.9753C19.1331 17.5964 19.3368 17.3015 19.6054 17.0974C19.8673 16.8967 20.1779 16.7992 20.5572 16.7992C20.8802 16.7992 21.1502 16.8502 21.3592 16.9496C21.5835 17.0584 21.8079 17.2156 22.027 17.4178L22.3567 17.7228L24.3555 13.9995L24.2144 13.8202C23.9087 13.4308 23.5106 13.1363 23.0316 12.9457Z" fill="black"/>
<path d="M27.9477 5.84322C27.2559 5.84322 26.6527 6.06943 26.153 6.51434C25.6417 6.97164 25.3813 7.56062 25.3813 8.26738C25.3813 8.95126 25.6398 9.53423 26.1496 10.0002C26.6474 10.4571 27.2525 10.69 27.9473 10.69C28.6409 10.69 29.2423 10.4571 29.7352 9.99753C30.2315 9.53198 30.4848 8.94976 30.4848 8.26738C30.4848 7.56212 30.2315 6.97427 29.7303 6.51622C29.2378 6.0698 28.6379 5.84322 27.9477 5.84322Z" fill="black"/>
<path d="M30.0572 12.9762H25.7798V26.7476H30.0572V12.9762Z" fill="black"/>
<path d="M44.9265 13.4191C43.9185 12.8617 42.8242 12.5788 41.674 12.5788C40.4912 12.5788 39.4445 12.8864 38.5607 13.493C38.1934 13.7477 37.8588 14.0479 37.5613 14.3896V12.9765H33.1699V33H37.5613V25.3306C37.8588 25.6757 38.1934 25.9766 38.5622 26.2313C39.4445 26.8361 40.4912 27.1455 41.674 27.1455C42.8242 27.1455 43.9188 26.8634 44.9283 26.3064C45.9378 25.7436 46.762 24.906 47.3754 23.8132C47.9906 22.7238 48.3035 21.3939 48.3035 19.8629C48.3035 18.3121 47.9906 16.9773 47.3754 15.8973C46.7602 14.8135 45.9375 13.98 44.9265 13.4191ZM39.1501 16.9154C40.1764 16.3734 41.3135 16.4574 42.2089 16.9308C42.6933 17.1848 43.0706 17.5509 43.3629 18.0484C43.6517 18.5421 43.7977 19.1528 43.7977 19.8626C43.7977 20.5719 43.6517 21.1823 43.3629 21.6749C43.0706 22.1727 42.6933 22.5384 42.2071 22.7947C41.3199 23.2636 40.1813 23.3521 39.1482 22.8082C38.6826 22.5617 38.3105 22.1997 38.0062 21.6985C37.7106 21.2082 37.5609 20.5903 37.5609 19.8622C37.5609 19.1333 37.7103 18.5143 38.0062 18.0244C38.3056 17.5307 38.6913 17.1578 39.1501 16.9154Z" fill="black"/>
<path d="M64.8571 18.033L50.7041 4.70425V26.7476H55.3232V14.8695L69.4758 28.1986V6.15568H64.8571V18.033Z" fill="black"/>
<path d="M82.5295 21.8126C82.1843 22.382 81.7462 22.8116 81.2244 23.0937C80.7025 23.3777 80.055 23.5221 79.3021 23.5221C78.6531 23.5221 78.0938 23.3758 77.6399 23.0922C77.1931 22.8101 76.8513 22.3937 76.6255 21.8565C76.5201 21.6104 76.4387 21.3346 76.379 21.0341H86.3342L86.3818 20.743C86.4024 20.6207 86.4178 20.4557 86.4294 20.2501C86.4396 20.0543 86.4429 19.8686 86.4429 19.6911C86.4429 18.2382 86.1608 16.974 85.6068 15.9319C85.0444 14.8792 84.215 14.0659 83.1428 13.5137C82.0823 12.969 80.7907 12.6929 79.3021 12.6929C77.8117 12.6929 76.4965 12.9889 75.3883 13.5715C74.2715 14.1619 73.3963 15.0015 72.7916 16.0662C72.185 17.1274 71.877 18.4044 71.877 19.8629C71.877 21.3024 72.1846 22.5692 72.7916 23.6279C73.3963 24.6951 74.27 25.5381 75.3864 26.1364C76.4927 26.731 77.8016 27.0319 79.2729 27.0319C80.8976 27.0319 82.3164 26.7074 83.491 26.0652C84.6734 25.4192 85.6323 24.4404 86.3428 23.1574L86.5502 22.7838L82.6701 21.5822L82.5295 21.8126ZM76.6544 17.6219C76.8806 17.0771 77.2085 16.6615 77.6301 16.388C78.0533 16.1145 78.5969 15.9761 79.2462 15.9761C79.7714 15.9761 80.2133 16.089 80.5986 16.3227C80.9828 16.5565 81.272 16.8648 81.481 17.267C81.6018 17.5007 81.6903 17.7674 81.7409 18.0642H76.4998C76.5456 17.9081 76.5966 17.7603 76.6544 17.6219Z" fill="black"/>
<path d="M97.0224 19.2308C96.4158 18.8928 95.7447 18.5844 95.0443 18.3199C94.4718 18.072 93.9601 17.8626 93.5099 17.6886C93.1089 17.5355 92.8009 17.3633 92.5968 17.1746C92.4321 17.0235 92.3556 16.8663 92.3556 16.6783C92.3556 16.4131 92.4625 16.3054 92.5578 16.2417C92.7364 16.1209 92.9997 16.0597 93.3411 16.0597C93.9091 16.0597 94.5037 16.2101 95.1069 16.5065C95.7222 16.8107 96.256 17.2065 96.6942 17.6826L96.9845 17.9969L99.0253 15.1335L98.8179 14.9253C98.3831 14.4913 97.8714 14.1045 97.2937 13.7747C96.7276 13.4529 96.1007 13.1892 95.4311 12.9907C93.956 12.5574 92.1358 12.5953 90.7575 13.1284C89.9896 13.4251 89.371 13.8745 88.9174 14.4624C88.4552 15.0607 88.2208 15.7964 88.2208 16.6494C88.2208 17.5366 88.4297 18.2783 88.839 18.8545C89.2333 19.4135 89.745 19.87 90.3602 20.2088C90.9398 20.5276 91.5479 20.8071 92.1834 21.0457C92.8174 21.2505 93.3408 21.4456 93.7369 21.6287C94.1091 21.7949 94.3912 21.9836 94.578 22.1858C94.7363 22.3576 94.8128 22.5631 94.8128 22.8164C94.8128 23.0932 94.7277 23.2924 94.5438 23.4436C94.1736 23.7463 93.385 23.7869 92.5353 23.4841C92.1407 23.3449 91.7111 23.1221 91.2606 22.825C90.8033 22.5238 90.3039 22.1212 89.772 21.6249L89.4933 21.3642L87.2754 24.2153L87.5016 24.4328C88.0096 24.9205 88.5861 25.3793 89.2145 25.7942C89.8538 26.217 90.5812 26.5606 91.3765 26.8154C92.177 27.0705 93.0673 27.201 94.0243 27.201C95.5995 27.201 96.8622 26.8052 97.775 26.0234C98.7046 25.2296 99.175 24.1132 99.175 22.7027C99.175 21.8342 98.9713 21.1144 98.5684 20.5655C98.1798 20.0332 97.6602 19.5842 97.0224 19.2308Z" fill="black"/>
<path d="M105.825 12.9762V8.42945H101.574V12.9762H99.3296V16.7711H101.574V26.7476H105.825V16.7711H108.099V12.9762H105.825Z" fill="black"/>
<defs>
<linearGradient id="paint0_linear" x1="144.016" y1="15.3469" x2="144.931" y2="9.98978" gradientUnits="userSpaceOnUse">
<stop stop-color="#FFC200"/>
<stop offset="1" stop-color="#FF7700"/>
</linearGradient>
<linearGradient id="paint1_linear" x1="149.264" y1="7.2186" x2="140.64" y2="3.56013" gradientUnits="userSpaceOnUse">
<stop stop-color="#FFC200"/>
<stop offset="1" stop-color="#FF7700"/>
</linearGradient>
<linearGradient id="paint2_linear" x1="136.927" y1="5.57228" x2="144.766" y2="12.1371" gradientUnits="userSpaceOnUse">
<stop stop-color="#F4F4F4"/>
<stop offset="1" stop-color="#E5E5E5"/>
</linearGradient>
<linearGradient id="paint3_linear" x1="125.67" y1="33.9083" x2="132.725" y2="22.9335" gradientUnits="userSpaceOnUse">
<stop stop-color="#94FDC7"/>
<stop offset="1" stop-color="#3D8FE8"/>
</linearGradient>
<linearGradient id="paint4_linear" x1="124.606" y1="29.1546" x2="129.637" y2="19.9428" gradientUnits="userSpaceOnUse">
<stop stop-color="#94FDC7"/>
<stop offset="1" stop-color="#3D8FE8"/>
</linearGradient>
<linearGradient id="paint5_linear" x1="124.084" y1="17.8795" x2="137.999" y2="20.1988" gradientUnits="userSpaceOnUse">
<stop stop-color="#94FDC7"/>
<stop offset="1" stop-color="#3D8FE8"/>
</linearGradient>
<linearGradient id="paint6_linear" x1="125.925" y1="15.6703" x2="135.201" y2="17.5648" gradientUnits="userSpaceOnUse">
<stop stop-color="#94FDC7"/>
<stop offset="1" stop-color="#3D8FE8"/>
</linearGradient>
<linearGradient id="paint7_linear" x1="122.446" y1="7.59229" x2="129.829" y2="14.8119" gradientUnits="userSpaceOnUse">
<stop stop-color="#94FDC7"/>
<stop offset="1" stop-color="#3D8FE8"/>
</linearGradient>
<linearGradient id="paint8_linear" x1="126.732" y1="12.0107" x2="133.961" y2="15.3638" gradientUnits="userSpaceOnUse">
<stop stop-color="#94FDC7"/>
<stop offset="1" stop-color="#3D8FE8"/>
</linearGradient>
<linearGradient id="paint9_linear" x1="114.336" y1="3.53978" x2="138.835" y2="6.6103" gradientUnits="userSpaceOnUse">
<stop stop-color="#94FDC7"/>
<stop offset="1" stop-color="#3D8FE8"/>
</linearGradient>
<linearGradient id="paint10_linear" x1="122.722" y1="6.50896" x2="129.877" y2="12.1605" gradientUnits="userSpaceOnUse">
<stop stop-color="#94FDC7"/>
<stop offset="1" stop-color="#3D8FE8"/>
</linearGradient>
</defs>
</svg>
