<svg width="34" height="33" viewBox="0 0 34 33" fill="none" xmlns="http://www.w3.org/2000/svg">
<path d="M24.5721 9.07656C24.4775 11.3564 24.1393 13.8013 23.4053 16.2395C23.4053 16.2395 23.4053 16.2395 23.4112 16.2395C27.5415 15.6187 29.4005 10.2451 29.4043 10.2375C28.0515 9.6982 26.4022 9.22762 24.5721 9.08972V9.07656Z" fill="url(#paint0_linear)"/>
<path d="M23.8223 0.00088501C24.1473 1.57595 24.5084 3.8855 24.5852 6.57185C24.6119 7.3772 24.6119 8.21352 24.5742 9.07658V9.09017C26.4043 9.22765 28.0532 9.69863 29.4064 10.2379C31.7076 11.1549 33.1456 12.2679 33.1456 12.2679C35.1905 0.72562 23.8223 0.00088501 23.8223 0.00088501Z" fill="url(#paint1_linear)"/>
<path d="M24.5848 6.57184C24.5292 4.71886 24.343 3.04408 24.1236 1.66761C16.1466 -0.0500164 15.9624 7.39585 15.9624 7.39585C15.9624 14.3482 23.4069 16.2398 23.4069 16.2398C24.141 13.8017 24.4792 11.3564 24.5738 9.07698C24.6116 8.2135 24.6116 7.37718 24.5848 6.57184Z" fill="url(#paint2_linear)"/>
<path d="M13.0115 22.0704C10.6047 30.4358 2.78711 33 2.78711 33C13.3076 30.8932 18.9375 25.8417 21.8224 20.2C21.7346 20.2509 17.9208 22.3606 13.0115 22.0704Z" fill="url(#paint3_linear)"/>
<path d="M13.0114 22.0705C11.4623 21.978 9.80149 21.6517 8.11186 20.9384C8.11186 20.9443 8.40209 28.2986 2.78711 33C2.78753 33 10.6051 30.4359 13.0114 22.0705Z" fill="url(#paint4_linear)"/>
<path d="M25.2199 5.82586C25.2199 7.19343 24.1108 8.2958 22.7534 8.2958C21.3867 8.2958 20.2817 7.19343 20.2817 5.82586C20.2817 4.46422 21.3867 3.36141 22.7534 3.36141C24.1108 3.36184 25.2199 4.46422 25.2199 5.82586Z" fill="white"/>
<path d="M24.3315 5.77414C24.3315 6.40085 23.8241 6.90918 23.1952 6.90918C22.5685 6.90918 22.061 6.40085 22.061 5.77414C22.061 5.14657 22.5685 4.63612 23.1952 4.63612C23.8241 4.63612 24.3315 5.14657 24.3315 5.77414Z" fill="#424242"/>
<path d="M21.8223 20.2C22.2726 19.3323 22.6434 18.4518 22.9625 17.5667C12.2655 22.9126 2.22021 16.6663 2.22021 16.6663C10.9548 26.2223 21.6743 20.2844 21.8223 20.2Z" fill="url(#paint5_linear)"/>
<path d="M2.22021 16.6663C2.22021 16.6663 12.2655 22.9128 22.9625 17.5667C23.122 17.1255 23.2739 16.6833 23.4068 16.2395C23.4068 16.2395 21.9823 15.878 20.381 14.888C15.3257 19.5997 6.3607 16.7745 6.3607 16.7745C4.81279 17.1017 2.22021 16.6663 2.22021 16.6663Z" fill="url(#paint6_linear)"/>
<path d="M6.3605 16.7749C6.3605 16.7749 15.3255 19.5996 20.3808 14.8884C19.9327 14.6126 19.4714 14.285 19.0217 13.9044C8.17869 19.3806 0 8.78288 0 8.78288C1.04509 14.6843 6.3605 16.7749 6.3605 16.7749Z" fill="url(#paint7_linear)"/>
<path d="M0 8.78252C0 8.78252 8.17873 19.3806 19.0217 13.904C18.9373 13.831 18.8528 13.7538 18.7663 13.6761C9.57047 16.3327 3.94573 9.7088 3.94573 9.7088C2.00278 10.0521 0 8.78252 0 8.78252Z" fill="url(#paint8_linear)"/>
<path d="M18.2647 13.1984C18.2706 13.1984 18.274 13.1992 18.274 13.1992C16.9879 11.8529 15.9598 9.97441 15.9598 7.39499C15.9598 7.39499 16.1444 -0.0504898 24.1211 1.66672C24.0231 1.04764 23.9174 0.488388 23.8194 0C16.6629 0 14.5218 6.25697 14.5218 6.25697C6.61379 6.86629 1.34717 0.485423 1.34717 0.485423C1.34717 0.485423 3.99405 12.5084 18.2647 13.1984Z" fill="url(#paint9_linear)"/>
<path d="M3.94571 9.70883C3.94571 9.70883 9.57051 16.3324 18.7664 13.6762C18.6009 13.5256 18.4337 13.366 18.2763 13.1997C18.2763 13.1997 18.2725 13.1988 18.2669 13.1988C3.99622 12.5089 1.34973 0.486702 1.34973 0.486702C-0.11163 5.97525 3.94571 9.70883 3.94571 9.70883Z" fill="url(#paint10_linear)"/>
<defs>
<linearGradient id="paint0_linear" x1="26.0164" y1="15.3469" x2="26.9311" y2="9.98978" gradientUnits="userSpaceOnUse">
<stop stop-color="#FFC200"/>
<stop offset="1" stop-color="#FF7700"/>
</linearGradient>
<linearGradient id="paint1_linear" x1="31.2638" y1="7.2186" x2="22.6405" y2="3.56013" gradientUnits="userSpaceOnUse">
<stop stop-color="#FFC200"/>
<stop offset="1" stop-color="#FF7700"/>
</linearGradient>
<linearGradient id="paint2_linear" x1="18.9274" y1="5.57228" x2="26.7661" y2="12.1371" gradientUnits="userSpaceOnUse">
<stop stop-color="#F4F4F4"/>
<stop offset="1" stop-color="#E5E5E5"/>
</linearGradient>
<linearGradient id="paint3_linear" x1="7.66998" y1="33.9083" x2="14.7252" y2="22.9335" gradientUnits="userSpaceOnUse">
<stop stop-color="#94FDC7"/>
<stop offset="1" stop-color="#3D8FE8"/>
</linearGradient>
<linearGradient id="paint4_linear" x1="6.6063" y1="29.1546" x2="11.6369" y2="19.9428" gradientUnits="userSpaceOnUse">
<stop stop-color="#94FDC7"/>
<stop offset="1" stop-color="#3D8FE8"/>
</linearGradient>
<linearGradient id="paint5_linear" x1="6.08374" y1="17.8795" x2="19.9992" y2="20.1988" gradientUnits="userSpaceOnUse">
<stop stop-color="#94FDC7"/>
<stop offset="1" stop-color="#3D8FE8"/>
</linearGradient>
<linearGradient id="paint6_linear" x1="7.92481" y1="15.6703" x2="17.2014" y2="17.5648" gradientUnits="userSpaceOnUse">
<stop stop-color="#94FDC7"/>
<stop offset="1" stop-color="#3D8FE8"/>
</linearGradient>
<linearGradient id="paint7_linear" x1="4.44637" y1="7.59229" x2="11.8293" y2="14.8119" gradientUnits="userSpaceOnUse">
<stop stop-color="#94FDC7"/>
<stop offset="1" stop-color="#3D8FE8"/>
</linearGradient>
<linearGradient id="paint8_linear" x1="8.73224" y1="12.0107" x2="15.9612" y2="15.3638" gradientUnits="userSpaceOnUse">
<stop stop-color="#94FDC7"/>
<stop offset="1" stop-color="#3D8FE8"/>
</linearGradient>
<linearGradient id="paint9_linear" x1="-3.6638" y1="3.53978" x2="20.8352" y2="6.6103" gradientUnits="userSpaceOnUse">
<stop stop-color="#94FDC7"/>
<stop offset="1" stop-color="#3D8FE8"/>
</linearGradient>
<linearGradient id="paint10_linear" x1="4.72235" y1="6.50896" x2="11.8766" y2="12.1605" gradientUnits="userSpaceOnUse">
<stop stop-color="#94FDC7"/>
<stop offset="1" stop-color="#3D8FE8"/>
</linearGradient>
</defs>
</svg>
