<svg width="35" height="20" viewBox="0 0 35 20" fill="none" xmlns="http://www.w3.org/2000/svg">
<path d="M34.061 10C34.061 15.5026 29.6166 20 24.061 20C18.5584 20 14.061 15.5026 14.061 10C14.061 4.49735 18.5055 0 24.0081 0C29.6166 0 34.061 4.49735 34.061 10Z" fill="#FFB600"/>
<path d="M24.061 0C29.5637 0 34.061 4.49735 34.061 10C34.061 15.5026 29.6166 20 24.061 20C18.5584 20 14.061 15.5026 14.061 10" fill="#F7981D"/>
<path d="M24.061 0C29.5637 0 34.061 4.49735 34.061 10C34.061 15.5026 29.6166 20 24.061 20" fill="#FF8500"/>
<path d="M10.6217 0C5.17198 0.05291 0.727539 4.49735 0.727539 10C0.727539 15.5026 5.17198 20 10.7275 20C13.3201 20 15.6482 18.9947 17.4471 17.4074C17.8175 17.0899 18.1349 16.7196 18.4524 16.3492H16.3889C16.1244 16.0317 15.8598 15.6614 15.6482 15.3439H19.1931C19.4048 15.0265 19.6164 14.6561 19.7752 14.2857H15.0662C14.9074 13.9683 14.7487 13.5979 14.6429 13.2275H20.1455C20.463 12.2222 20.6746 11.164 20.6746 10.0529C20.6746 9.31217 20.5688 8.62434 20.463 7.93651H14.3254C14.3783 7.56614 14.4842 7.24868 14.59 6.87831H20.0926C19.9868 6.50794 19.8281 6.13757 19.6693 5.82011H15.0133C15.172 5.44974 15.3836 5.13227 15.5953 4.7619H19.1402C18.9286 4.39153 18.664 4.02116 18.3466 3.7037H16.3889C16.7064 3.33333 17.0238 3.01587 17.3942 2.69841C15.6482 1.0582 13.2672 0.10582 10.6746 0.10582C10.6746 -1.02495e-07 10.6746 0 10.6217 0Z" fill="#FF5050"/>
<path d="M0.727539 9.99989C0.727539 15.5025 5.17198 19.9999 10.7275 19.9999C13.3201 19.9999 15.6482 18.9946 17.4471 17.4073C17.8175 17.0898 18.1349 16.7195 18.4524 16.3491H16.3889C16.1244 16.0316 15.8598 15.6613 15.6482 15.3438H19.1931C19.4048 15.0263 19.6164 14.656 19.7752 14.2856H15.0662C14.9074 13.9681 14.7487 13.5978 14.6429 13.2274H20.1455C20.463 12.2221 20.6746 11.1639 20.6746 10.0528C20.6746 9.31206 20.5688 8.62423 20.463 7.9364H14.3254C14.3783 7.56603 14.4842 7.24857 14.59 6.8782H20.0926C19.9868 6.50783 19.8281 6.13746 19.6693 5.82H15.0133C15.172 5.44963 15.3836 5.13217 15.5953 4.7618H19.1402C18.9286 4.39143 18.664 4.02106 18.3466 3.7036H16.3889C16.7064 3.33323 17.0238 3.01577 17.3942 2.69831C15.6482 1.05809 13.2672 0.105713 10.6746 0.105713H10.6217" fill="#E52836"/>
<path d="M10.7274 19.9999C13.32 19.9999 15.648 18.9946 17.447 17.4073C17.8173 17.0898 18.1348 16.7195 18.4523 16.3491H16.3888C16.1242 16.0316 15.8597 15.6613 15.648 15.3438H19.193C19.4047 15.0263 19.6163 14.656 19.775 14.2856H15.066C14.9073 13.9681 14.7486 13.5978 14.6427 13.2274H20.1454C20.4629 12.2221 20.6745 11.1639 20.6745 10.0528C20.6745 9.31206 20.5687 8.62423 20.4629 7.9364H14.3253C14.3782 7.56603 14.484 7.24857 14.5898 6.8782H20.0925C19.9867 6.50783 19.8279 6.13746 19.6692 5.82H15.0131C15.1718 5.44963 15.3835 5.13217 15.5951 4.7618H19.1401C18.9285 4.39143 18.6639 4.02106 18.3464 3.7036H16.3888C16.7062 3.33323 17.0237 3.01577 17.3941 2.69831C15.648 1.05809 13.2671 0.105713 10.6745 0.105713H10.6216" fill="#CB2026"/>
<path d="M14.2722 12.5396L14.4309 11.6402C14.378 11.6402 14.2722 11.6931 14.1664 11.6931C13.796 11.6931 13.7431 11.4814 13.796 11.3756L14.1135 9.52376H14.6955L14.8542 8.51847H14.3251L14.4309 7.88354H13.3727C13.3727 7.88354 12.7378 11.3756 12.7378 11.7989C12.7378 12.4338 13.1082 12.6984 13.5844 12.6984C13.9018 12.6984 14.1664 12.5925 14.2722 12.5396Z" fill="white"/>
<path d="M14.6426 10.8466C14.6426 12.3281 15.6479 12.6985 16.4944 12.6985C17.2881 12.6985 17.6055 12.5398 17.6055 12.5398L17.8172 11.5345C17.8172 11.5345 17.2352 11.799 16.7061 11.799C15.542 11.799 15.7537 10.9525 15.7537 10.9525H17.923C17.923 10.9525 18.0817 10.2646 18.0817 10.0001C18.0817 9.31224 17.7114 8.46568 16.5473 8.46568C15.4362 8.35986 14.6426 9.52388 14.6426 10.8466ZM16.4944 9.31224C17.0764 9.31224 16.9706 10.0001 16.9706 10.053H15.8066C15.8066 10.0001 15.9124 9.31224 16.4944 9.31224Z" fill="white"/>
<path d="M23.2143 12.5397L23.4259 11.3757C23.4259 11.3757 22.8968 11.6403 22.5264 11.6403C21.7857 11.6403 21.4682 11.0583 21.4682 10.4233C21.4682 9.1535 22.1031 8.46567 22.8439 8.46567C23.373 8.46567 23.7963 8.78313 23.7963 8.78313L23.955 7.67202C23.955 7.67202 23.3201 7.40747 22.7381 7.40747C21.5211 7.40747 20.3042 8.46567 20.3042 10.4763C20.3042 11.799 20.9391 12.6985 22.209 12.6985C22.6322 12.6985 23.2143 12.5397 23.2143 12.5397Z" fill="white"/>
<path d="M8.45199 8.35986C7.71125 8.35986 7.18215 8.5715 7.18215 8.5715L7.02342 9.47097C7.02342 9.47097 7.49961 9.25933 8.18744 9.25933C8.55781 9.25933 8.87527 9.31224 8.87527 9.6297C8.87527 9.84134 8.82236 9.89425 8.82236 9.89425C8.82236 9.89425 8.5049 9.89425 8.34617 9.89425C7.4467 9.89425 6.44141 10.2646 6.44141 11.4816C6.44141 12.4339 7.07633 12.6456 7.4467 12.6456C8.18744 12.6456 8.5049 12.1694 8.55781 12.1694L8.5049 12.5927H9.45728L9.88056 9.68261C9.88056 8.41277 8.82236 8.35986 8.45199 8.35986ZM8.66363 10.7408C8.66363 10.8995 8.55781 11.7461 7.92289 11.7461C7.60543 11.7461 7.49961 11.4816 7.49961 11.3228C7.49961 11.0583 7.65834 10.6879 8.45199 10.6879C8.61072 10.7408 8.66363 10.7408 8.66363 10.7408Z" fill="white"/>
<path d="M10.8859 12.6455C11.1504 12.6455 12.4732 12.6984 12.4732 11.2698C12.4732 9.9471 11.2033 10.2116 11.2033 9.68255C11.2033 9.418 11.415 9.31218 11.7853 9.31218C11.9441 9.31218 12.5261 9.36509 12.5261 9.36509L12.6848 8.41271C12.6848 8.41271 12.3144 8.30688 11.6795 8.30688C10.8859 8.30688 10.0922 8.62435 10.0922 9.68255C10.0922 10.8995 11.415 10.7937 11.415 11.2698C11.415 11.5873 11.0446 11.6402 10.7801 11.6402C10.3039 11.6402 9.82768 11.4815 9.82768 11.4815L9.66895 12.4339C9.72186 12.5397 9.98641 12.6455 10.8859 12.6455Z" fill="white"/>
<path d="M31.9973 7.51318L31.7857 8.94176C31.7857 8.94176 31.3624 8.41265 30.7804 8.41265C29.828 8.41265 28.9814 9.57668 28.9814 10.9523C28.9814 11.7989 29.4047 12.6984 30.3042 12.6984C30.9391 12.6984 31.3095 12.2751 31.3095 12.2751L31.2566 12.6455H32.3148L33.1084 7.56609L31.9973 7.51318ZM31.5211 10.3174C31.5211 10.8994 31.2566 11.6402 30.6746 11.6402C30.3042 11.6402 30.0926 11.3227 30.0926 10.7936C30.0926 9.94705 30.4629 9.41795 30.9391 9.41795C31.3095 9.41795 31.5211 9.6825 31.5211 10.3174Z" fill="white"/>
<path d="M2.68498 12.5925L3.3199 8.78303L3.42572 12.5925H4.16646L5.54212 8.78303L4.96011 12.5925H6.07122L6.91778 7.51318H5.17175L4.11355 10.6349L4.06064 7.51318H2.52625L1.67969 12.5925H2.68498Z" fill="white"/>
<path d="M19.0869 12.5926C19.4043 10.8465 19.4572 9.41796 20.198 9.68251C20.3038 8.99468 20.4625 8.73013 20.5684 8.46558C20.5684 8.46558 20.5154 8.46558 20.3567 8.46558C19.8805 8.46558 19.5102 9.1005 19.5102 9.1005L19.616 8.51849H18.6107L17.9229 12.6455H19.0869V12.5926Z" fill="white"/>
<path d="M25.6478 8.35986C24.907 8.35986 24.3779 8.5715 24.3779 8.5715L24.2192 9.47097C24.2192 9.47097 24.6954 9.25933 25.3832 9.25933C25.7536 9.25933 26.0711 9.31224 26.0711 9.6297C26.0711 9.84134 26.0182 9.89425 26.0182 9.89425C26.0182 9.89425 25.7007 9.89425 25.542 9.89425C24.6425 9.89425 23.6372 10.2646 23.6372 11.4816C23.6372 12.4339 24.2721 12.6456 24.6425 12.6456C25.3832 12.6456 25.7007 12.1694 25.7536 12.1694L25.7007 12.5927H26.6531L27.0764 9.68261C27.1293 8.41277 26.0182 8.35986 25.6478 8.35986ZM25.9123 10.7408C25.9123 10.8995 25.8065 11.7461 25.1716 11.7461C24.8541 11.7461 24.7483 11.4816 24.7483 11.3228C24.7483 11.0583 24.907 10.6879 25.7007 10.6879C25.8594 10.7408 25.8594 10.7408 25.9123 10.7408Z" fill="white"/>
<path d="M27.976 12.5926C28.2935 10.8465 28.3464 9.41796 29.0871 9.68251C29.193 8.99468 29.3517 8.73013 29.4575 8.46558C29.4575 8.46558 29.4046 8.46558 29.2459 8.46558C28.7697 8.46558 28.3993 9.1005 28.3993 9.1005L28.5051 8.51849H27.4998L26.812 12.6455H27.976V12.5926Z" fill="white"/>
<path d="M12.6318 11.7989C12.6318 12.4338 13.0022 12.6984 13.4784 12.6984C13.8488 12.6984 14.1662 12.5925 14.272 12.5396L14.4308 11.6402C14.3779 11.6402 14.272 11.6931 14.1662 11.6931C13.7959 11.6931 13.7429 11.4814 13.7959 11.3756L14.1133 9.52376H14.6953L14.8541 8.51847H14.325L14.4308 7.88354" fill="white"/>
<path d="M15.1719 10.8466C15.1719 12.3281 15.6481 12.6985 16.4946 12.6985C17.2883 12.6985 17.6057 12.5398 17.6057 12.5398L17.8174 11.5345C17.8174 11.5345 17.2354 11.799 16.7063 11.799C15.5422 11.799 15.7539 10.9525 15.7539 10.9525H17.9232C17.9232 10.9525 18.0819 10.2646 18.0819 10.0001C18.0819 9.31224 17.7116 8.46568 16.5475 8.46568C15.4364 8.35986 15.1719 9.52388 15.1719 10.8466ZM16.4946 9.31224C17.0766 9.31224 17.1825 10.0001 17.1825 10.053H15.8068C15.8068 10.0001 15.9126 9.31224 16.4946 9.31224Z" fill="white"/>
<path d="M23.214 12.5397L23.4256 11.3757C23.4256 11.3757 22.8965 11.6403 22.5261 11.6403C21.7854 11.6403 21.4679 11.0583 21.4679 10.4233C21.4679 9.1535 22.1028 8.46567 22.8436 8.46567C23.3727 8.46567 23.796 8.78313 23.796 8.78313L23.9547 7.67202C23.9547 7.67202 23.3198 7.40747 22.7378 7.40747C21.5208 7.40747 20.833 8.46567 20.833 10.4763C20.833 11.799 20.9388 12.6985 22.2087 12.6985C22.6319 12.6985 23.214 12.5397 23.214 12.5397Z" fill="white"/>
<path d="M7.02342 9.52378C7.02342 9.52378 7.49961 9.31214 8.18744 9.31214C8.55781 9.31214 8.87527 9.36505 8.87527 9.68251C8.87527 9.89415 8.82236 9.94706 8.82236 9.94706C8.82236 9.94706 8.5049 9.94706 8.34617 9.94706C7.4467 9.94706 6.44141 10.3174 6.44141 11.5344C6.44141 12.4867 7.07633 12.6984 7.4467 12.6984C8.18744 12.6984 8.5049 12.2222 8.55781 12.2222L8.5049 12.6455H9.45728L9.88056 9.73542C9.88056 8.51849 8.82236 8.46558 8.39908 8.46558L7.02342 9.52378ZM9.19273 10.7407C9.19273 10.8994 8.55781 11.746 7.92289 11.746C7.60543 11.746 7.49961 11.4814 7.49961 11.3227C7.49961 11.0582 7.65834 10.6878 8.45199 10.6878C8.61072 10.7407 9.19273 10.7407 9.19273 10.7407Z" fill="white"/>
<path d="M9.72217 12.5397C9.72217 12.5397 10.0396 12.6455 10.9391 12.6455C11.2036 12.6455 12.5264 12.6984 12.5264 11.2698C12.5264 9.9471 11.2566 10.2116 11.2566 9.68255C11.2566 9.418 11.4682 9.31218 11.8386 9.31218C11.9973 9.31218 12.5793 9.36509 12.5793 9.36509L12.738 8.41271C12.738 8.41271 12.3677 8.30688 11.7327 8.30688C10.9391 8.30688 10.6745 8.62435 10.6745 9.68255C10.6745 10.8995 11.4682 10.7937 11.4682 11.2698C11.4682 11.5873 11.0978 11.6402 10.8333 11.6402" fill="white"/>
<path d="M31.7853 8.94182C31.7853 8.94182 31.362 8.41272 30.78 8.41272C29.8276 8.41272 29.5102 9.57674 29.5102 10.9524C29.5102 11.799 29.4044 12.6984 30.3038 12.6984C30.9388 12.6984 31.3091 12.2752 31.3091 12.2752L31.2562 12.6455H32.3144L33.1081 7.56616L31.7853 8.94182ZM31.7324 10.3175C31.7324 10.8995 31.2562 11.6402 30.6742 11.6402C30.3038 11.6402 30.0922 11.3228 30.0922 10.7937C30.0922 9.94711 30.4626 9.41801 30.9388 9.41801C31.3091 9.41801 31.7324 9.68256 31.7324 10.3175Z" fill="white"/>
<path d="M2.68498 12.5925L3.3199 8.78303L3.42572 12.5925H4.16646L5.54212 8.78303L4.96011 12.5925H6.07122L6.91778 7.51318H5.59503L4.11355 10.6349L4.06064 7.51318H3.47863L1.67969 12.5925H2.68498Z" fill="white"/>
<path d="M17.9761 12.5926H19.0872C19.4046 10.8465 19.4576 9.41796 20.1983 9.68251C20.3041 8.99468 20.4628 8.73013 20.5687 8.46558C20.5687 8.46558 20.5158 8.46558 20.357 8.46558C19.8808 8.46558 19.5105 9.1005 19.5105 9.1005L19.6163 8.51849" fill="white"/>
<path d="M24.2192 9.52378C24.2192 9.52378 24.6954 9.31214 25.3832 9.31214C25.7536 9.31214 26.0711 9.36505 26.0711 9.68251C26.0711 9.89415 26.0182 9.94706 26.0182 9.94706C26.0182 9.94706 25.7007 9.94706 25.542 9.94706C24.6425 9.94706 23.6372 10.3174 23.6372 11.5344C23.6372 12.4867 24.2721 12.6984 24.6425 12.6984C25.3832 12.6984 25.7007 12.2222 25.7536 12.2222L25.7007 12.6455H26.6531L27.0764 9.73542C27.0764 8.51849 26.0182 8.46558 25.5949 8.46558L24.2192 9.52378ZM26.3885 10.7407C26.3885 10.8994 25.7536 11.746 25.1187 11.746C24.8012 11.746 24.6954 11.4814 24.6954 11.3227C24.6954 11.0582 24.8541 10.6878 25.6478 10.6878C25.8594 10.7407 26.3885 10.7407 26.3885 10.7407Z" fill="white"/>
<path d="M26.8647 12.5926H27.9759C28.2933 10.8465 28.3462 9.41796 29.087 9.68251C29.1928 8.99468 29.3515 8.73013 29.4573 8.46558C29.4573 8.46558 29.4044 8.46558 29.2457 8.46558C28.7695 8.46558 28.3991 9.1005 28.3991 9.1005L28.505 8.51849" fill="white"/>
</svg>
