<svg width="60" height="60" viewBox="0 0 60 60" fill="none" xmlns="http://www.w3.org/2000/svg">
<g clip-path="url(#clip0)">
<path d="M23.8546 40.4311L32.141 15.5717C32.4479 14.6508 31.9502 13.6552 31.0292 13.3482C30.1083 13.0413 29.1127 13.539 28.8057 14.46L20.5194 39.3193C20.2124 40.2403 20.7101 41.2358 21.6311 41.5428C21.8155 41.6042 22.003 41.6334 22.1872 41.6334C22.9231 41.6335 23.609 41.1677 23.8546 40.4311Z" fill="#4483E2"/>
<path d="M36.2734 32.719C39.1812 32.719 41.5469 30.3533 41.5469 27.4456C41.5469 24.5378 39.1812 22.1721 36.2734 22.1721C33.3657 22.1721 31 24.5378 31 27.4456C31 30.3533 33.3657 32.719 36.2734 32.719ZM36.2734 25.6877C37.2427 25.6877 38.0312 26.4763 38.0312 27.4456C38.0312 28.4148 37.2427 29.2034 36.2734 29.2034C35.3042 29.2034 34.5156 28.4148 34.5156 27.4456C34.5156 26.4763 35.3042 25.6877 36.2734 25.6877Z" fill="#4483E2"/>
<path d="M16.3862 22.1721C13.4785 22.1721 11.1128 24.5378 11.1128 27.4456C11.1128 30.3533 13.4785 32.719 16.3862 32.719C19.294 32.719 21.6597 30.3533 21.6597 27.4456C21.6597 24.5378 19.2941 22.1721 16.3862 22.1721ZM16.3862 29.2034C15.417 29.2034 14.6284 28.4148 14.6284 27.4456C14.6284 26.4763 15.417 25.6877 16.3862 25.6877C17.3555 25.6877 18.144 26.4763 18.144 27.4456C18.144 28.4148 17.3556 29.2034 16.3862 29.2034Z" fill="#4483E2"/>
<path d="M59.6489 21.7971L53.5192 13.6241L53.7584 11.9503C53.8365 11.4026 53.6524 10.8499 53.2611 10.4587L49.5322 6.72983L53.261 3.00092C53.9475 2.31455 53.9475 1.2015 53.261 0.51502C52.5746 -0.171348 51.4616 -0.171348 50.7751 0.51502L47.0463 4.24393L43.3174 0.51502C42.9262 0.12373 42.3736 -0.0597852 41.8259 0.0177929L24.4243 2.50369C24.0478 2.55748 23.6989 2.73197 23.43 3.00092L1.8853 24.5456C-0.627783 27.0586 -0.627783 31.1477 1.8853 33.6607L20.1153 51.8909C20.4882 52.2637 20.8965 52.58 21.3286 52.8422V53.5549C21.3286 57.1089 24.22 60.0002 27.7739 60.0002H53.5552C57.1091 60.0002 60.0005 57.1089 60.0005 53.5549V22.8518C60.0005 22.4715 59.8771 22.1013 59.6489 21.7971ZM4.3712 31.1748C3.22886 30.0324 3.22886 28.1739 4.3712 27.0315L25.5015 5.90119L41.4528 3.62248L44.5603 6.72994L42.0744 9.21584L40.8314 7.97283C40.145 7.28647 39.032 7.28647 38.3455 7.97283C37.659 8.6592 37.659 9.77225 38.3455 10.4587L43.3174 15.4306C43.6607 15.7739 44.1105 15.9456 44.5603 15.9456C45.0101 15.9456 45.4601 15.7739 45.8032 15.4306C46.4897 14.7443 46.4897 13.6312 45.8032 12.9447L44.5602 11.7017L47.0461 9.21584L50.1535 12.3233L47.8747 28.2746L26.7445 49.405C26.1912 49.9583 25.4555 50.263 24.6729 50.263C23.8903 50.263 23.1546 49.9582 22.6012 49.405L4.3712 31.1748ZM56.4848 53.5549C56.4848 55.1703 55.1706 56.4846 53.5552 56.4846H27.7739C26.2312 56.4846 24.9642 55.286 24.853 53.7712C26.4429 53.7272 28.0196 53.1016 29.2303 51.8909L50.775 30.3462C51.0439 30.0772 51.2184 29.7283 51.2722 29.3518L52.8159 18.546L56.4848 23.4377V53.5549Z" fill="#4483E2"/>
</g>
<defs>
<clipPath id="clip0">
<rect width="60" height="60" fill="white"/>
</clipPath>
</defs>
</svg>
