<svg width="20" height="20" viewBox="0 0 20 20" fill="none" xmlns="http://www.w3.org/2000/svg">
<g clip-path="url(#clip0)">
<path d="M17.7052 4.70588H17.6471V2.35295H14.1176V4.70588H13.0209L12.4694 2.22455C12.3324 1.60746 11.7951 1.17648 11.163 1.17648H8.83702C8.2049 1.17648 7.66765 1.60746 7.53059 2.22451L6.97914 4.70588H5.88235V2.35295H2.35294V4.70588H2.29478C1.02941 4.70588 0 5.7353 0 7.00067V16.5288C0 17.7941 1.02941 18.8235 2.29478 18.8235H17.7053C18.9706 18.8235 20 17.7941 20 16.5287V7.00067C20 5.7353 18.9706 4.70588 17.7052 4.70588ZM15.2941 5.88235V17.6471H4.70588V5.88235H15.2941ZM15.2941 3.52941H16.4706V4.70588H15.2941V3.52941ZM8.67898 2.47965C8.69557 2.40506 8.76055 2.35295 8.83698 2.35295H11.1629C11.2394 2.35295 11.3044 2.40506 11.3209 2.47969L11.8157 4.70588H8.18427L8.67898 2.47965ZM3.52941 3.52941H4.70588V4.70588H3.52941V3.52941ZM1.17647 16.5287V7.00067C1.17647 6.38404 1.67816 5.88235 2.29478 5.88235H3.52941V17.6471H2.29478C1.67816 17.6471 1.17647 17.1454 1.17647 16.5287ZM18.8235 16.5287C18.8235 17.1454 18.3218 17.6471 17.7052 17.6471H16.4706V5.88235H17.7052C18.3218 5.88235 18.8235 6.38404 18.8235 7.00067V16.5287Z" fill="white"/>
<path d="M14.0501 10.5197L13.167 7.10255L8.61084 8.27993L9.49386 11.6971L14.0501 10.5197ZM12.3224 8.53593L12.6168 9.67502L10.3386 10.2637L10.0443 9.12463L12.3224 8.53593Z" fill="white"/>
<path d="M7.84311 16.4706C8.92429 16.4706 9.80389 15.591 9.80389 14.5098C9.80389 13.4286 8.92429 12.549 7.84311 12.549C6.76193 12.549 5.88232 13.4286 5.88232 14.5098C5.88232 15.591 6.76193 16.4706 7.84311 16.4706ZM7.84311 13.7255C8.27558 13.7255 8.62742 14.0774 8.62742 14.5098C8.62742 14.9423 8.27558 15.2941 7.84311 15.2941C7.41064 15.2941 7.05879 14.9423 7.05879 14.5098C7.05879 14.0774 7.41064 13.7255 7.84311 13.7255Z" fill="white"/>
</g>
<defs>
<clipPath id="clip0">
<rect width="20" height="20" fill="white"/>
</clipPath>
</defs>
</svg>
