<svg width="26" height="26" viewBox="0 0 26 26" fill="none" xmlns="http://www.w3.org/2000/svg">
<path d="M12.9604 12.7999C14.6629 11.8255 15.8261 10.0111 15.8261 7.91302C15.8261 4.79641 13.2905 2.26083 10.1739 2.26083C7.0573 2.26083 4.52172 4.79641 4.52172 7.91302C4.52172 10.0111 5.68494 11.8255 7.38737 12.7999C3.12906 13.9179 0 17.5183 0 21.7857V23.1739C0 23.4859 0.253235 23.7391 0.565235 23.7391C0.877234 23.7391 1.13047 23.4859 1.13047 23.1739V21.7857C1.13042 17.2538 5.18758 13.5652 10.1739 13.5652C15.1602 13.5652 19.2174 17.2538 19.2174 21.7857V23.1739C19.2174 23.4859 19.4706 23.7391 19.7826 23.7391C20.0946 23.7391 20.3479 23.4859 20.3479 23.1739V21.7857C20.3478 17.5183 17.2188 13.9168 12.9604 12.7999ZM5.65219 7.91302C5.65219 5.4193 7.68019 3.3913 10.1739 3.3913C12.6676 3.3913 14.6956 5.4193 14.6956 7.91302C14.6956 10.4067 12.6676 12.4347 10.1739 12.4347C7.68019 12.4347 5.65219 10.4068 5.65219 7.91302Z" fill="#4483E2"/>
<path d="M20.5719 12.8146C21.7972 12.0041 22.6089 10.6181 22.6089 9.04347C22.6089 6.54976 20.5809 4.52176 18.0872 4.52176C17.7752 4.52176 17.522 4.77499 17.522 5.08699C17.522 5.39899 17.7752 5.65223 18.0872 5.65223C19.9569 5.65223 21.4785 7.17381 21.4785 9.04353C21.4785 10.9132 19.9569 12.4348 18.0872 12.4348C17.7752 12.4348 17.522 12.6881 17.522 13.0001C17.522 13.3121 17.7752 13.5652 18.0872 13.5652C21.8278 13.5652 24.8698 16.3766 24.8698 19.8334V20.913C24.8698 21.225 25.123 21.4782 25.435 21.4782C25.747 21.4782 26.0002 21.225 26.0002 20.913V19.8334C26.0002 16.5665 23.7213 13.7913 20.5719 12.8146Z" fill="#4483E2"/>
</svg>
