<svg width="65" height="20" viewBox="0 0 65 20" fill="none" xmlns="http://www.w3.org/2000/svg">
<path d="M26.9411 0L23.7336 19.9599H28.8604L32.0659 0H26.9411ZM42.4053 8.13055C40.6138 7.24583 39.5155 6.64871 39.5155 5.74383C39.5374 4.92109 40.4442 4.0782 42.4693 4.0782C44.1349 4.03636 45.3592 4.4278 46.2879 4.81726L46.7532 5.02492L47.4502 0.848803C46.4375 0.457368 44.8319 0.0260655 42.8487 0.0260655C37.7859 0.0260655 34.2209 2.65834 34.1988 6.42309C34.1569 9.20125 36.7511 10.7429 38.6925 11.6677C40.6758 12.6164 41.3509 13.2315 41.3509 14.0744C41.329 15.3685 39.7472 15.9656 38.2713 15.9656C36.2263 15.9656 35.1278 15.6581 33.4602 14.937L32.7851 14.6294L32.0681 18.9694C33.2724 19.5047 35.4872 19.9759 37.7861 20C43.1665 20 46.6675 17.4076 46.7116 13.3953C46.7291 11.1943 45.3612 9.50857 42.4053 8.13055ZM60.5936 0.0617705H56.6271C55.4049 0.0617705 54.4761 0.41334 53.9469 1.6676L46.3315 19.9599H51.712L53.1938 15.9996H59.2134L59.9823 19.9759H64.7277L60.5936 0.0617705ZM54.6859 12.0028C54.7898 12.0129 56.7511 5.53792 56.7511 5.53792L58.3129 12.0028C58.3129 12.0028 55.6986 12.0028 54.6859 12.0028ZM19.4498 0L14.4268 13.5609L13.8796 10.8866C12.9509 7.80088 10.0391 4.44773 6.78955 2.7821L11.3891 19.94H16.8135L24.8742 0.00218926H19.4498V0Z" fill="#2394BC"/>
<path d="M12.1899 2.57419C11.7984 1.05226 10.5501 0.0258109 8.85467 0.00390625H0.899794L0.817871 0.373217C7.02323 1.90303 12.2317 6.61033 13.9214 11.0381L12.1899 2.57419Z" fill="#EFC75E"/>
</svg>
